<svg width="24" height="24" viewBox="0 0 24 24" fill="none" xmlns="http://www.w3.org/2000/svg">
<path d="M21.2273 9.24672H2.77296C2.64413 9.24672 2.52057 9.2979 2.42948 9.389C2.33838 9.48009 2.2872 9.60365 2.2872 9.73248V14.2675C2.2872 14.5358 2.50488 14.7533 2.77296 14.7533H21.227C21.3558 14.7532 21.4793 14.702 21.5704 14.6109C21.6614 14.5198 21.7126 14.3963 21.7126 14.2675V9.73248C21.7126 9.66872 21.7001 9.60558 21.6757 9.54666C21.6513 9.48774 21.6156 9.4342 21.5705 9.38909C21.5255 9.34399 21.472 9.3082 21.4131 9.28377C21.3542 9.25934 21.291 9.24675 21.2273 9.24672Z" fill="black"/>
</svg>
